<svg version="1.1" id="Layer_1" xmlns="http://www.w3.org/2000/svg" xmlns:xlink="http://www.w3.org/1999/xlink" x="0px" y="0px"
	 width="100%" viewBox="0 0 1920 1080" enable-background="new 0 0 1920 1080" xml:space="preserve">
<path fill="#F2B36E" opacity="1.000000" stroke="none" 
	d="
M1146.000000,1081.000000 
	C764.360046,1081.000000 382.720093,1081.000000 1.040061,1081.000000 
	C1.040061,721.051880 1.040061,361.103790 1.040061,1.077848 
	C640.903320,1.077848 1280.806641,1.077848 1920.854980,1.077848 
	C1920.854980,360.878082 1920.854980,720.756226 1920.854980,1081.000000 
	C1750.967407,1081.000000 1580.934692,1081.000000 1410.329956,1080.600586 
	C1409.223999,1073.073975 1408.100586,1065.933228 1408.262939,1058.821777 
	C1408.819092,1034.442627 1413.673096,1010.907898 1423.700562,988.588745 
	C1425.060303,985.562317 1424.511353,983.819824 1422.112305,981.748840 
	C1419.495239,979.489685 1417.115967,976.858459 1415.040039,974.084900 
	C1403.408936,958.543579 1397.742798,940.401917 1393.033936,921.960938 
	C1381.821777,878.052246 1378.057617,833.096069 1375.080566,788.083191 
	C1373.587280,765.503845 1372.396362,742.864136 1372.253906,720.244324 
	C1371.980103,676.770203 1372.236572,633.286072 1372.877930,589.815063 
	C1373.320068,559.859924 1374.572998,529.911011 1375.852661,499.975891 
	C1376.833252,477.037140 1378.430054,454.124847 1379.705444,431.198212 
	C1379.751221,430.375977 1379.293579,429.525726 1378.924072,428.138428 
	C1368.287964,442.394775 1355.249756,452.710358 1339.866577,460.066010 
	C1316.364380,471.304047 1291.600708,478.192841 1265.724854,480.980621 
	C1261.609863,481.423950 1260.278198,482.839386 1259.924316,487.094727 
	C1259.182007,496.021759 1258.098999,505.003632 1256.121948,513.728760 
	C1250.948120,536.560913 1242.256714,558.197693 1232.481079,579.408142 
	C1218.169189,610.461304 1202.041748,640.574158 1182.725464,668.770813 
	C1166.887939,691.889404 1151.588867,715.197266 1139.249390,740.431335 
	C1119.335938,781.154297 1104.656738,823.731201 1093.221924,867.490173 
	C1091.422119,874.377808 1089.162476,881.570862 1089.496704,888.507996 
	C1090.376221,906.763062 1091.611450,925.104004 1094.423828,943.142761 
	C1101.549194,988.842590 1116.411865,1031.924316 1140.812622,1071.474854 
	C1142.708252,1074.547241 1144.278564,1077.820190 1146.000000,1081.000000 
M1606.803345,476.304321 
	C1581.553223,500.874939 1554.345337,523.006287 1524.617432,541.959045 
	C1521.476562,543.961426 1521.225464,545.739990 1522.942261,548.837341 
	C1533.107910,567.176392 1543.103638,585.609558 1553.198242,603.988037 
	C1558.742920,614.082581 1556.719849,613.206482 1566.163574,607.174133 
	C1586.441650,594.221130 1608.672974,589.573120 1632.168457,593.548462 
	C1657.614990,597.853882 1679.250732,610.509888 1698.470459,627.424988 
	C1703.559692,631.903870 1708.458740,636.598938 1713.427490,641.178467 
	C1714.138062,640.755920 1714.662964,640.596069 1714.958740,640.243896 
	C1717.635864,637.054749 1720.231323,633.796570 1722.928711,630.624939 
	C1739.855225,610.722107 1758.131470,592.385986 1781.885376,580.533691 
	C1801.369019,570.812073 1821.543823,567.372681 1842.813110,574.029541 
	C1866.976562,581.592163 1884.279175,597.922119 1898.895752,617.713806 
	C1900.924683,620.461243 1902.865967,623.273499 1904.847900,626.055725 
	C1897.471924,540.810059 1867.937256,464.676544 1813.126831,399.015289 
	C1782.396851,362.201782 1746.540894,331.389374 1703.360596,308.431427 
	C1702.789917,310.943848 1702.404175,312.349396 1702.155762,313.778778 
	C1696.749390,344.887878 1684.871948,373.537872 1668.490234,400.316986 
	C1651.460083,428.156006 1630.669922,453.048523 1606.803345,476.304321 
M1449.852905,145.526871 
	C1462.981323,145.970154 1476.142334,147.212784 1489.230835,146.678162 
	C1511.471436,145.769699 1533.205200,141.798294 1553.588013,132.148804 
	C1573.766602,122.596107 1588.663696,108.119431 1595.655640,86.572983 
	C1601.297974,69.185455 1600.726807,51.487892 1597.056763,33.754288 
	C1596.310303,30.147680 1595.154297,26.916069 1590.914429,27.431581 
	C1586.532959,27.964327 1586.556519,31.321060 1586.881592,35.038452 
	C1587.821167,45.780621 1589.309814,56.595688 1588.860840,67.309975 
	C1588.189819,83.320778 1581.815430,97.427895 1570.016724,108.525795 
	C1558.505005,119.353867 1544.558960,125.813225 1529.400879,130.019150 
	C1507.019287,136.229370 1484.256958,138.470612 1461.196655,136.338989 
	C1435.929932,134.003403 1410.711792,132.174805 1385.588379,137.181946 
	C1362.782227,141.727249 1342.405762,150.666046 1328.351318,170.410248 
	C1320.035278,182.092987 1316.583496,195.264297 1316.431763,209.410980 
	C1316.394043,212.922241 1317.829590,215.721573 1321.924438,215.713730 
	C1326.015137,215.705902 1326.585938,212.700821 1326.775513,209.499878 
	C1326.972046,206.181473 1326.844971,202.797363 1327.464966,199.557922 
	C1332.419434,173.675674 1349.476562,158.975769 1373.311157,151.036484 
	C1397.993042,142.815018 1423.430908,143.151245 1449.852905,145.526871 
M1354.789673,274.724243 
	C1354.299561,273.854156 1353.827759,272.973175 1353.316528,272.115692 
	C1344.972900,258.118805 1330.182861,257.169952 1321.219971,270.799957 
	C1317.033569,277.166138 1313.947632,284.737213 1312.296753,292.190460 
	C1308.743286,308.232697 1310.843140,324.254333 1314.931396,340.079529 
	C1315.895996,343.814056 1317.370728,345.610687 1321.306519,345.130554 
	C1333.650269,343.624725 1346.099121,342.734375 1358.322388,340.564301 
	C1368.767822,338.709778 1368.929199,338.047333 1367.883423,327.455292 
	C1366.112427,309.518494 1363.304932,291.780853 1354.789673,274.724243 
M1110.585693,198.886520 
	C1129.335571,195.749039 1146.926270,197.958206 1161.532837,211.252304 
	C1166.006104,215.323654 1169.478638,220.573624 1173.016235,225.562637 
	C1174.963257,228.308609 1177.135254,229.587204 1180.142822,228.338959 
	C1183.443359,226.968994 1183.349243,223.971191 1182.552734,221.081146 
	C1182.207642,219.829483 1181.473389,218.641693 1180.733032,217.548767 
	C1165.629028,195.252991 1144.462891,185.795792 1117.827393,187.721268 
	C1097.562744,189.186188 1079.680786,197.421890 1061.972168,206.532227 
	C1048.553955,213.435318 1034.382568,218.315140 1018.991577,217.953064 
	C1000.815552,217.525482 986.882080,205.527863 983.981750,188.325241 
	C981.447083,173.291061 983.379944,158.575974 988.795898,144.658844 
	C994.022278,131.228897 1000.895874,118.439995 1007.044861,105.369026 
	C1008.458496,102.364250 1010.724915,98.981201 1006.452209,96.748413 
	C1002.697449,94.786331 999.855103,96.581673 997.956177,100.304825 
	C995.992004,104.156219 993.578430,107.777527 991.594055,111.619659 
	C979.997986,134.071548 971.251038,157.357147 973.200317,183.204102 
	C975.195801,209.663452 991.638123,227.196426 1018.734985,227.977966 
	C1034.461792,228.431549 1049.072632,224.114334 1063.040649,217.611877 
	C1078.272095,210.521271 1092.934814,202.126312 1110.585693,198.886520 
z"/>
<path fill="#F8F3D6" opacity="1.000000" stroke="none" 
	d="
M1146.468628,1081.000000 
	C1144.278564,1077.820190 1142.708252,1074.547241 1140.812622,1071.474854 
	C1116.411865,1031.924316 1101.549194,988.842590 1094.423828,943.142761 
	C1091.611450,925.104004 1090.376221,906.763062 1089.496704,888.507996 
	C1089.162476,881.570862 1091.422119,874.377808 1093.221924,867.490173 
	C1104.656738,823.731201 1119.335938,781.154297 1139.249390,740.431335 
	C1151.588867,715.197266 1166.887939,691.889404 1182.725464,668.770813 
	C1202.041748,640.574158 1218.169189,610.461304 1232.481079,579.408142 
	C1242.256714,558.197693 1250.948120,536.560913 1256.121948,513.728760 
	C1258.098999,505.003632 1259.182007,496.021759 1259.924316,487.094727 
	C1260.278198,482.839386 1261.609863,481.423950 1265.724854,480.980621 
	C1291.600708,478.192841 1316.364380,471.304047 1339.866577,460.066010 
	C1355.249756,452.710358 1368.287964,442.394775 1378.924072,428.138428 
	C1379.293579,429.525726 1379.751221,430.375977 1379.705444,431.198212 
	C1378.430054,454.124847 1376.833252,477.037140 1375.852661,499.975891 
	C1374.572998,529.911011 1373.320068,559.859924 1372.877930,589.815063 
	C1372.236572,633.286072 1371.980103,676.770203 1372.253906,720.244324 
	C1372.396362,742.864136 1373.587280,765.503845 1375.080566,788.083191 
	C1378.057617,833.096069 1381.821777,878.052246 1393.033936,921.960938 
	C1397.742798,940.401917 1403.408936,958.543579 1415.040039,974.084900 
	C1417.115967,976.858459 1419.495239,979.489685 1422.112305,981.748840 
	C1424.511353,983.819824 1425.060303,985.562317 1423.700562,988.588745 
	C1413.673096,1010.907898 1408.819092,1034.442627 1408.262939,1058.821777 
	C1408.100586,1065.933228 1409.223999,1073.073975 1409.879028,1080.600586 
	C1322.312378,1081.000000 1234.624878,1081.000000 1146.468628,1081.000000 
z"/>
<path fill="#2FAD9B" opacity="1.000000" stroke="none" 
	d="
M1607.047241,476.047974 
	C1630.669922,453.048523 1651.460083,428.156006 1668.490234,400.316986 
	C1684.871948,373.537872 1696.749390,344.887878 1702.155762,313.778778 
	C1702.404175,312.349396 1702.789917,310.943848 1703.360596,308.431427 
	C1746.540894,331.389374 1782.396851,362.201782 1813.126831,399.015289 
	C1867.937256,464.676544 1897.471924,540.810059 1904.847900,626.055725 
	C1902.865967,623.273499 1900.924683,620.461243 1898.895752,617.713806 
	C1884.279175,597.922119 1866.976562,581.592163 1842.813110,574.029541 
	C1821.543823,567.372681 1801.369019,570.812073 1781.885376,580.533691 
	C1758.131470,592.385986 1739.855225,610.722107 1722.928711,630.624939 
	C1720.231323,633.796570 1717.635864,637.054749 1714.958740,640.243896 
	C1714.662964,640.596069 1714.138062,640.755920 1713.427490,641.178467 
	C1708.458740,636.598938 1703.559692,631.903870 1698.470459,627.424988 
	C1679.250732,610.509888 1657.614990,597.853882 1632.168457,593.548462 
	C1608.672974,589.573120 1586.441650,594.221130 1566.163574,607.174133 
	C1556.719849,613.206482 1558.742920,614.082581 1553.198242,603.988037 
	C1543.103638,585.609558 1533.107910,567.176392 1522.942261,548.837341 
	C1521.225464,545.739990 1521.476562,543.961426 1524.617432,541.959045 
	C1554.345337,523.006287 1581.553223,500.874939 1607.047241,476.047974 
z"/>
<path fill="#FAF0D0" opacity="1.000000" stroke="none" 
	d="
M1449.404053,145.436371 
	C1423.430908,143.151245 1397.993042,142.815018 1373.311157,151.036484 
	C1349.476562,158.975769 1332.419434,173.675674 1327.464966,199.557922 
	C1326.844971,202.797363 1326.972046,206.181473 1326.775513,209.499878 
	C1326.585938,212.700821 1326.015137,215.705902 1321.924438,215.713730 
	C1317.829590,215.721573 1316.394043,212.922241 1316.431763,209.410980 
	C1316.583496,195.264297 1320.035278,182.092987 1328.351318,170.410248 
	C1342.405762,150.666046 1362.782227,141.727249 1385.588379,137.181946 
	C1410.711792,132.174805 1435.929932,134.003403 1461.196655,136.338989 
	C1484.256958,138.470612 1507.019287,136.229370 1529.400879,130.019150 
	C1544.558960,125.813225 1558.505005,119.353867 1570.016724,108.525795 
	C1581.815430,97.427895 1588.189819,83.320778 1588.860840,67.309975 
	C1589.309814,56.595688 1587.821167,45.780621 1586.881592,35.038452 
	C1586.556519,31.321060 1586.532959,27.964327 1590.914429,27.431581 
	C1595.154297,26.916069 1596.310303,30.147680 1597.056763,33.754288 
	C1600.726807,51.487892 1601.297974,69.185455 1595.655640,86.572983 
	C1588.663696,108.119431 1573.766602,122.596107 1553.588013,132.148804 
	C1533.205200,141.798294 1511.471436,145.769699 1489.230835,146.678162 
	C1476.142334,147.212784 1462.981323,145.970154 1449.404053,145.436371 
z"/>
<path fill="#FFFDF6" opacity="1.000000" stroke="none" 
	d="
M1354.932983,275.065979 
	C1363.304932,291.780853 1366.112427,309.518494 1367.883423,327.455292 
	C1368.929199,338.047333 1368.767822,338.709778 1358.322388,340.564301 
	C1346.099121,342.734375 1333.650269,343.624725 1321.306519,345.130554 
	C1317.370728,345.610687 1315.895996,343.814056 1314.931396,340.079529 
	C1310.843140,324.254333 1308.743286,308.232697 1312.296753,292.190460 
	C1313.947632,284.737213 1317.033569,277.166138 1321.219971,270.799957 
	C1330.182861,257.169952 1344.972900,258.118805 1353.316528,272.115692 
	C1353.827759,272.973175 1354.299561,273.854156 1354.932983,275.065979 
z"/>
<path fill="#FAF0CF" opacity="1.000000" stroke="none" 
	d="
M1110.160645,198.952805 
	C1092.934814,202.126312 1078.272095,210.521271 1063.040649,217.611877 
	C1049.072632,224.114334 1034.461792,228.431549 1018.734985,227.977966 
	C991.638123,227.196426 975.195801,209.663452 973.200317,183.204102 
	C971.251038,157.357147 979.997986,134.071548 991.594055,111.619659 
	C993.578430,107.777527 995.992004,104.156219 997.956177,100.304825 
	C999.855103,96.581673 1002.697449,94.786331 1006.452209,96.748413 
	C1010.724915,98.981201 1008.458496,102.364250 1007.044861,105.369026 
	C1000.895874,118.439995 994.022278,131.228897 988.795898,144.658844 
	C983.379944,158.575974 981.447083,173.291061 983.981750,188.325241 
	C986.882080,205.527863 1000.815552,217.525482 1018.991577,217.953064 
	C1034.382568,218.315140 1048.553955,213.435318 1061.972168,206.532227 
	C1079.680786,197.421890 1097.562744,189.186188 1117.827393,187.721268 
	C1144.462891,185.795792 1165.629028,195.252991 1180.733032,217.548767 
	C1181.473389,218.641693 1182.207642,219.829483 1182.552734,221.081146 
	C1183.349243,223.971191 1183.443359,226.968994 1180.142822,228.338959 
	C1177.135254,229.587204 1174.963257,228.308609 1173.016235,225.562637 
	C1169.478638,220.573624 1166.006104,215.323654 1161.532837,211.252304 
	C1146.926270,197.958206 1129.335571,195.749039 1110.160645,198.952805 
z"/>
</svg>